<mxfile host="app.diagrams.net" agent="Mozilla/5.0 (Windows NT 10.0; Win64; x64) AppleWebKit/537.36 (KHTML, like Gecko) Chrome/133.0.0.0 Safari/537.36" version="26.0.11">
  <diagram name="Page-1" id="mT1F8vcwhFO7ZBE5nL5x">
    <mxGraphModel dx="819" dy="422" grid="1" gridSize="10" guides="1" tooltips="1" connect="1" arrows="1" fold="1" page="1" pageScale="1" pageWidth="827" pageHeight="1169" math="0" shadow="0">
      <root>
        <mxCell id="0" />
        <mxCell id="1" parent="0" />
        <mxCell id="UudOnzUR4N78he5Arojo-4" value="&lt;h1 style=&quot;margin-top: 0px;&quot;&gt;Product&lt;/h1&gt;&lt;p&gt;. Id&lt;/p&gt;&lt;p&gt;. Name&lt;/p&gt;&lt;p&gt;. Description&lt;/p&gt;" style="text;html=1;whiteSpace=wrap;overflow=hidden;rounded=0;" vertex="1" parent="1">
          <mxGeometry x="520" width="120" height="120" as="geometry" />
        </mxCell>
        <mxCell id="UudOnzUR4N78he5Arojo-5" value="&lt;h1 style=&quot;margin-top: 0px;&quot;&gt;Wishlist&lt;/h1&gt;&lt;p&gt;- id&lt;/p&gt;&lt;p&gt;- productId&lt;/p&gt;&lt;p&gt;- userId&lt;/p&gt;&lt;p&gt;CreatedAT&lt;/p&gt;&lt;p&gt;UpdateAt&lt;/p&gt;" style="text;html=1;whiteSpace=wrap;overflow=hidden;rounded=0;" vertex="1" parent="1">
          <mxGeometry x="660" width="180" height="180" as="geometry" />
        </mxCell>
        <mxCell id="UudOnzUR4N78he5Arojo-6" value="&lt;h1 style=&quot;margin-top: 0px;&quot;&gt;&lt;br&gt;&lt;/h1&gt;&lt;p&gt;Lorem ipsum dolor sit amet, consectetur adipisicing elit, sed do eiusmod tempor incididunt ut labore et dolore magna aliqua.&lt;/p&gt;" style="text;html=1;whiteSpace=wrap;overflow=hidden;rounded=0;" vertex="1" parent="1">
          <mxGeometry x="250" y="200" width="180" height="120" as="geometry" />
        </mxCell>
      </root>
    </mxGraphModel>
  </diagram>
</mxfile>
